<svg viewBox="0 0 223 223" fill="none" xmlns="http://www.w3.org/2000/svg">
<circle cx="111.5" cy="111.5" r="111.5" fill="white"/>
<path d="M86.576 163H65.12C63.296 163 61.952 162.616 61.088 161.848C60.32 160.984 59.936 159.64 59.936 157.816V64.504C59.936 62.68 60.32 61.384 61.088 60.616C61.952 59.752 63.296 59.32 65.12 59.32H88.304C89.84 59.32 91.088 59.656 92.048 60.328C93.104 61 94.064 62.104 94.928 63.64L107.888 87.112C108.368 87.976 108.752 88.6 109.04 88.984C109.424 89.368 109.904 89.56 110.48 89.56H111.776C112.352 89.56 112.784 89.368 113.072 88.984C113.456 88.6 113.888 87.976 114.368 87.112L127.184 63.64C128.048 62.104 128.96 61 129.92 60.328C130.976 59.656 132.272 59.32 133.808 59.32H157.136C158.96 59.32 160.256 59.752 161.024 60.616C161.888 61.384 162.32 62.68 162.32 64.504V157.816C162.32 159.64 161.888 160.984 161.024 161.848C160.256 162.616 158.96 163 157.136 163H134.96C133.136 163 131.792 162.616 130.928 161.848C130.16 160.984 129.776 159.64 129.776 157.816V107.128L121.28 122.824C120.416 124.456 119.36 125.656 118.112 126.424C116.96 127.096 115.472 127.432 113.648 127.432H107.888C106.064 127.432 104.528 127.096 103.28 126.424C102.128 125.656 101.12 124.456 100.256 122.824L91.76 107.128V157.816C91.76 159.64 91.328 160.984 90.464 161.848C89.696 162.616 88.4 163 86.576 163Z" fill="url(#paint0_linear)"/>
<defs>
<linearGradient id="paint0_linear" x1="230" y1="5.49999" x2="7.5" y2="224.5" gradientUnits="userSpaceOnUse">
<stop stop-color="#5B2D87"/>
<stop offset="1" stop-color="#1B0449"/>
</linearGradient>
</defs>
</svg>
