<?xml version="1.0" standalone="no"?>
<!DOCTYPE svg PUBLIC "-//W3C//DTD SVG 20010904//EN"
 "http://www.w3.org/TR/2001/REC-SVG-20010904/DTD/svg10.dtd">
<svg version="1.0" xmlns="http://www.w3.org/2000/svg"
 width="700.000000pt" height="700.000000pt" viewBox="0 0 700.000000 700.000000"
 preserveAspectRatio="xMidYMid meet">
<metadata>
Created by potrace 1.11, written by Peter Selinger 2001-2013
</metadata>
<g transform="translate(0.000000,700.000000) scale(0.100000,-0.100000)"
fill="#000000" stroke="none">
<path d="M3270 6994 c-19 -2 -84 -9 -145 -15 -1471 -146 -2713 -1253 -3040
-2708 -99 -438 -111 -919 -34 -1371 229 -1349 1267 -2467 2596 -2795 310 -76
505 -99 853 -99 296 0 409 9 649 55 675 127 1302 453 1785 927 486 478 805
1030 962 1667 75 305 99 508 99 845 0 268 -8 365 -46 595 -95 569 -345 1125
-712 1585 -569 713 -1374 1169 -2280 1291 -144 19 -590 34 -687 23z m-389
-1886 c25 -15 57 -44 71 -65 15 -21 123 -213 240 -426 118 -213 222 -397 231
-407 13 -15 29 -20 67 -20 49 0 50 1 84 53 18 28 118 207 221 397 218 403 240
438 297 471 l43 24 430 0 c392 0 433 -2 462 -18 68 -36 63 82 63 -1607 0
-1689 5 -1571 -63 -1607 -29 -16 -71 -18 -404 -21 -460 -4 -502 2 -537 78 -8
18 -12 264 -16 844 l-5 819 -129 -239 c-157 -290 -174 -316 -234 -351 -47 -28
-48 -28 -227 -28 -177 0 -181 0 -226 27 -56 33 -65 46 -230 350 l-134 248 -5
-828 c-5 -769 -6 -830 -23 -855 -41 -63 -31 -62 -472 -62 -440 0 -451 1 -483
59 -16 29 -17 140 -20 1531 -2 825 0 1519 3 1543 8 54 48 101 95 112 19 5 220
8 445 7 l410 -2 46 -27z"/>
</g>
</svg>
